<?xml version="1.0" encoding="utf-8"?>
<!-- Generator: Adobe Illustrator 16.2.1, SVG Export Plug-In . SVG Version: 6.00 Build 0)  -->
<!DOCTYPE svg PUBLIC "-//W3C//DTD SVG 1.1//EN" "http://www.w3.org/Graphics/SVG/1.1/DTD/svg11.dtd">
<svg version="1.1" id="Layer_1" xmlns="http://www.w3.org/2000/svg" xmlns:xlink="http://www.w3.org/1999/xlink" x="0px" y="0px" width="180px" height="177.846px" viewBox="0 0 180 177.846" enable-background="new 0 0 180 177.846" xml:space="preserve">
    <g>
        <circle fill="#92A8D1" cx="90.024" cy="88.922" r="36.306"/>
        <path
            fill="#92A8D1"
            d="M164.115,27.317c0-6.896-5.592-12.484-12.486-12.484c-3.129,0-5.979,1.158-8.171,3.06
		C128.571,6.665,110.062,0,90.023,0C40.991,0,1.101,39.891,1.101,88.923c0,49.031,39.891,88.923,88.923,88.923
		s88.922-39.892,88.922-88.923c0-20.039-6.665-38.548-17.892-53.436C162.956,33.297,164.115,30.445,164.115,27.317z M90.023,174.854
		c-47.382,0-85.932-38.55-85.932-85.932S42.641,2.99,90.023,2.99c19.266,0,37.069,6.374,51.417,17.123
		c-1.442,2.036-2.297,4.518-2.297,7.203c0,6.895,5.59,12.483,12.484,12.483c2.686,0,5.165-0.855,7.202-2.297
		c10.749,14.348,17.123,32.151,17.123,51.419C175.954,136.304,137.406,174.854,90.023,174.854z"/>
    </g>
</svg>
