<?xml version="1.0" encoding="UTF-8" standalone="no"?>
<!-- Generator: Adobe Illustrator 16.2.1, SVG Export Plug-In . SVG Version: 6.00 Build 0)  -->

<svg
   xmlns:dc="http://purl.org/dc/elements/1.1/"
   xmlns:cc="http://creativecommons.org/ns#"
   xmlns:rdf="http://www.w3.org/1999/02/22-rdf-syntax-ns#"
   xmlns:svg="http://www.w3.org/2000/svg"
   xmlns="http://www.w3.org/2000/svg"
   xmlns:sodipodi="http://sodipodi.sourceforge.net/DTD/sodipodi-0.dtd"
   xmlns:inkscape="http://www.inkscape.org/namespaces/inkscape"
   version="1.1"
   id="Layer_1"
   x="0px"
   y="0px"
   width="512px"
   height="512px"
   viewBox="0 0 512 512"
   style="enable-background:new 0 0 512 512;"
   xml:space="preserve"
   inkscape:version="0.91 r13725"
   sodipodi:docname="ionic.svg"><metadata
     id="metadata13"><rdf:RDF><cc:Work
         rdf:about=""><dc:format>image/svg+xml</dc:format><dc:type
           rdf:resource="http://purl.org/dc/dcmitype/StillImage" /></cc:Work></rdf:RDF></metadata><defs
     id="defs11" /><sodipodi:namedview
     pagecolor="#ffffff"
     bordercolor="#666666"
     borderopacity="1"
     objecttolerance="10"
     gridtolerance="10"
     guidetolerance="10"
     inkscape:pageopacity="0"
     inkscape:pageshadow="2"
     inkscape:window-width="640"
     inkscape:window-height="480"
     id="namedview9"
     showgrid="false" /><path
     inkscape:connector-curvature="0"
     id="path5"
     d="m 425.5,135.4 c 4.7,-5.9 7.5,-13.5 7.5,-21.6 C 433,94.6 417.4,79 398.2,79 390,79 382.5,81.8 376.6,86.5 342.6,62.3 300.9,48 256,48 141.1,48 48,141.1 48,256 c 0,114.9 93.1,208 208,208 114.9,0 208,-93.1 208,-208 0,-44.9 -14.3,-86.6 -38.5,-120.6 z M 391.8,391.8 C 374.2,409.4 353.6,423.3 330.7,433 307,443 281.9,448.1 255.9,448.1 230,448.1 204.8,443 181.1,433 158.2,423.3 137.7,409.5 120,391.8 102.4,374.2 88.5,353.6 78.8,330.7 68.8,307 63.7,281.9 63.7,255.9 c 0,-25.9 5.1,-51.1 15.1,-74.8 9.7,-22.9 23.5,-43.4 41.2,-61.1 17.7,-17.7 38.2,-31.5 61.1,-41.2 23.7,-10 48.8,-15.1 74.8,-15.1 25.9,0 51.1,5.1 74.8,15.1 12.7,5.4 24.7,12.1 35.9,20 -2.1,4.5 -3.3,9.5 -3.3,14.9 0,19.2 15.6,34.8 34.8,34.8 5.3,0 10.3,-1.2 14.9,-3.3 7.9,11.2 14.6,23.2 20,35.9 10,23.7 15.1,48.8 15.1,74.8 0,25.9 -5.1,51.1 -15.1,74.8 -9.7,22.9 -23.5,43.5 -41.2,61.1 z" /><circle
     id="circle7"
     r="96.099998"
     cy="256"
     cx="256" /></svg>