<?xml version="1.0" encoding="UTF-8" standalone="no"?>
<!-- Generator: Adobe Illustrator 16.2.1, SVG Export Plug-In . SVG Version: 6.00 Build 0)  -->

<svg
   xmlns:dc="http://purl.org/dc/elements/1.1/"
   xmlns:cc="http://creativecommons.org/ns#"
   xmlns:rdf="http://www.w3.org/1999/02/22-rdf-syntax-ns#"
   xmlns:svg="http://www.w3.org/2000/svg"
   xmlns="http://www.w3.org/2000/svg"
   xmlns:sodipodi="http://sodipodi.sourceforge.net/DTD/sodipodi-0.dtd"
   xmlns:inkscape="http://www.inkscape.org/namespaces/inkscape"
   version="1.1"
   id="Layer_1"
   x="0px"
   y="0px"
   width="512px"
   height="177.846px"
   viewBox="0 0 512 177.846"
   enable-background="new 0 0 512 177.846"
   xml:space="preserve"
   inkscape:version="0.91 r13725"
   sodipodi:docname="Ionic_Logo.svg"><metadata
     id="metadata27"><rdf:RDF><cc:Work
         rdf:about=""><dc:format>image/svg+xml</dc:format><dc:type
           rdf:resource="http://purl.org/dc/dcmitype/StillImage" /></cc:Work></rdf:RDF></metadata><defs
     id="defs25" /><sodipodi:namedview
     pagecolor="#ffffff"
     bordercolor="#666666"
     borderopacity="1"
     objecttolerance="10"
     gridtolerance="10"
     guidetolerance="10"
     inkscape:pageopacity="0"
     inkscape:pageshadow="2"
     inkscape:window-width="640"
     inkscape:window-height="480"
     id="namedview23"
     showgrid="false" /><rect
     style="fill:#4e8ef7"
     id="rect5"
     height="69.596001"
     width="3.678"
     y="66.041"
     x="227.79201" /><path
     style="fill:#4e8ef7"
     inkscape:connector-curvature="0"
     id="path7"
     d="m 283.729,64.333 c -20.879,0 -36.632,15.759 -36.632,36.506 0,20.879 15.753,36.505 36.632,36.505 20.881,0 36.639,-15.626 36.639,-36.505 -0.002,-20.747 -15.759,-36.506 -36.639,-36.506 z m 0,69.597 c -18.776,0 -32.957,-14.182 -32.957,-33.091 0,-18.91 14.18,-33.09 32.957,-33.09 18.778,0 32.964,14.18 32.964,33.09 -0.002,18.909 -14.185,33.091 -32.964,33.091 z" /><path
     style="fill:#4e8ef7"
     inkscape:connector-curvature="0"
     id="path9"
     d="m 389.83,71.293 c -7.879,-6.435 -17.332,-6.96 -22.191,-6.96 -11.029,0 -23.244,5.123 -27.573,15.102 l -0.267,0 0,-13.394 -3.677,0 0,69.596 3.677,0 0,-40.051 c 0,-17.464 10.771,-27.837 28.234,-27.837 10.505,0 16.147,3.414 19.694,6.564 5.253,4.728 8.536,12.475 8.536,24.553 l 0,36.771 3.679,0 0,-36.771 c 0,-12.472 -3.283,-21.796 -10.112,-27.573 z" /><rect
     style="fill:#4e8ef7"
     id="rect11"
     height="69.596001"
     width="3.677"
     y="66.041"
     x="420.29501" /><path
     style="fill:#4e8ef7"
     inkscape:connector-curvature="0"
     id="path13"
     d="m 476.233,133.93 c -17.729,0 -32.961,-13.396 -32.961,-33.091 0,-9.454 3.938,-18.646 9.587,-23.77 7.221,-6.433 13.654,-9.32 23.505,-9.32 13.654,0 25.736,7.614 30.463,20.876 l 4.072,0 c -5.516,-16.413 -20.485,-24.292 -34.666,-24.292 -21.144,0 -36.64,16.02 -36.64,36.638 0,21.667 16.414,36.373 36.64,36.373 16.546,0 29.676,-9.454 34.533,-23.636 l -4.068,0 c -3.414,10.374 -14.708,20.222 -30.465,20.222 z" /><circle
     style="fill:#4e8ef7"
     id="circle15"
     r="3.9690001"
     cy="44.467999"
     cx="229.632" /><circle
     style="fill:#4e8ef7"
     id="circle17"
     r="3.9690001"
     cy="44.467999"
     cx="422.13199" /><circle
     style="fill:#4e8ef7"
     id="circle19"
     r="36.306"
     cy="88.921997"
     cx="90.024002" /><path
     style="fill:#4e8ef7"
     inkscape:connector-curvature="0"
     id="path21"
     d="m 164.115,27.317 c 0,-6.896 -5.592,-12.484 -12.486,-12.484 -3.129,0 -5.979,1.158 -8.171,3.06 C 128.571,6.665 110.062,0 90.023,0 40.991,0 1.101,39.891 1.101,88.923 c 0,49.031 39.891,88.923 88.923,88.923 49.032,0 88.922,-39.892 88.922,-88.923 0,-20.039 -6.665,-38.548 -17.892,-53.436 1.902,-2.19 3.061,-5.042 3.061,-8.17 z M 90.023,174.854 c -47.382,0 -85.932,-38.55 -85.932,-85.932 0,-47.382 38.55,-85.932 85.932,-85.932 19.266,0 37.069,6.374 51.417,17.123 -1.442,2.036 -2.297,4.518 -2.297,7.203 0,6.895 5.59,12.483 12.484,12.483 2.686,0 5.165,-0.855 7.202,-2.297 10.749,14.348 17.123,32.151 17.123,51.419 0.002,47.383 -38.546,85.933 -85.929,85.933 z" /></svg>