<svg width="200" height="45" version="1.1" viewBox="0 0 52.917 11.906" xmlns="http://www.w3.org/2000/svg">
 <g transform="translate(-28.044 -73.929)" fill="#519aba" stroke-width=".097579" aria-label="AJ.DAO">
  <path d="m28.362 85.66q-0.2148 0-0.2809-0.16523-0.08262-0.16523 0.01652-0.33047l6.2458-10.658q0.09914-0.16523 0.24785-0.2809 0.16523-0.13219 0.41308-0.13219h1.9167q0.24785 0 0.36351 0.13219 0.11566 0.11566 0.13219 0.2809l1.7184 10.658q0.03305 0.23133-0.08262 0.36351-0.09914 0.13219-0.2809 0.13219h-1.4045q-0.23133 0-0.33047-0.09914-0.09914-0.11566-0.13219-0.2809l-0.36351-1.9498h-4.9074l-1.2062 2.0158q-0.08262 0.11566-0.2148 0.2148-0.13219 0.09914-0.33047 0.09914zm4.2465-4.23h3.7673l-0.79312-5.1057z"/>
  <path d="m43.291 85.826q-0.79312 0-1.5697-0.2148-0.7766-0.23133-1.388-0.69398-0.59484-0.46265-0.89226-1.1401-0.29742-0.67746-0.16523-1.6028 0.03304-0.14871 0.13219-0.24785 0.11566-0.11566 0.2809-0.11566h1.5862q0.2148 0 0.29742 0.11566 0.09914 0.11566 0.11566 0.31394-0.06609 0.89226 0.39656 1.2888 0.46265 0.39656 1.3384 0.39656 1.1566 0 1.8176-0.67746 0.67746-0.67746 0.92531-1.8837l1.1401-5.3205h-5.6179q-0.16523 0-0.26437-0.11566-0.08262-0.11566-0.04957-0.2809l0.26437-1.1566q0.03305-0.16523 0.16523-0.2809 0.13219-0.11566 0.29742-0.11566h7.5677q0.18176 0 0.26437 0.11566 0.08262 0.11566 0.04957 0.29742l-1.4706 6.9233q-0.2809 1.3714-0.92531 2.3628-0.62789 0.9914-1.6854 1.5201-1.0575 0.51222-2.6107 0.51222z"/>
  <path d="m48.175 85.66q-0.18176 0-0.2809-0.11566-0.08262-0.11566-0.04957-0.2809l0.34699-1.6358q0.03305-0.18176 0.16523-0.29742 0.14871-0.11566 0.31394-0.11566h1.6523q0.16523 0 0.24785 0.11566 0.09914 0.11566 0.06609 0.29742l-0.34699 1.6358q-0.03305 0.16523-0.18176 0.2809-0.13219 0.11566-0.29742 0.11566z"/>
  <path d="m50.943 85.66q-0.18176 0-0.2809-0.11566-0.08262-0.11566-0.04957-0.2809l2.2967-10.757q0.03305-0.18176 0.16523-0.29742 0.13219-0.11566 0.31394-0.11566h3.7838q1.0905 0 1.9663 0.29742 0.87574 0.2809 1.4541 0.85921 0.57831 0.56179 0.80964 1.4045 0.23133 0.84269 0.03304 1.9332-0.14871 0.72703-0.26438 1.2888-0.11566 0.56179-0.29742 1.2723-0.36351 1.5367-1.041 2.5446-0.66093 0.9914-1.768 1.4871-1.0905 0.47918-2.7924 0.47918zm2.2967-1.9002h2.115q0.92531 0 1.5532-0.26438 0.64441-0.26437 1.041-0.84269 0.39656-0.59484 0.61136-1.5532 0.13219-0.4957 0.2148-0.85921 0.08262-0.38004 0.14871-0.74355 0.08262-0.38004 0.16524-0.85921 0.26438-1.3549-0.24785-1.9993-0.4957-0.64441-1.9167-0.64441h-2.0324z"/>
  <path d="m59.684 85.66q-0.2148 0-0.28089-0.16523-0.08262-0.16523 0.01652-0.33047l6.2458-10.658q0.09914-0.16523 0.24785-0.2809 0.16523-0.13219 0.41308-0.13219h1.9167q0.24785 0 0.36352 0.13219 0.11566 0.11566 0.13219 0.2809l1.7184 10.658q0.03305 0.23133-0.08261 0.36351-0.09914 0.13219-0.2809 0.13219h-1.4045q-0.23133 0-0.33047-0.09914-0.09914-0.11566-0.13219-0.2809l-0.36351-1.9498h-4.9074l-1.2062 2.0158q-0.08261 0.11566-0.2148 0.2148-0.13219 0.09914-0.33047 0.09914zm4.2465-4.23h3.7673l-0.79312-5.1057z"/>
  <path d="m74.673 85.826q-1.0079 0-1.8506-0.26438-0.84269-0.2809-1.4045-0.84269-0.56179-0.5618-0.79312-1.4045-0.2148-0.85922-0.01652-2.0158 0.11566-0.7105 0.26437-1.4045 0.16523-0.69398 0.33047-1.421 0.54527-2.2472 1.9498-3.3873 1.4045-1.1566 3.6517-1.1566 1.0244 0 1.8506 0.29742 0.84269 0.2809 1.4045 0.85921 0.56179 0.56179 0.7766 1.421 0.23133 0.84269 0.03305 1.9663-0.11566 0.72703-0.28089 1.421-0.14871 0.69398-0.31395 1.4045-0.56179 2.2967-1.9663 3.4203-1.4045 1.1071-3.6351 1.1071zm0.14871-1.9002q1.0905 0 1.9167-0.62789 0.84269-0.64441 1.1897-2.0819 0.18176-0.72703 0.31394-1.3384 0.13218-0.62789 0.24785-1.3384 0.26438-1.4375-0.23133-2.0654-0.47918-0.64441-1.6028-0.64441-1.1071 0-1.9332 0.64441-0.80964 0.62789-1.1566 2.0654-0.18176 0.7105-0.31395 1.3384-0.13219 0.61136-0.26437 1.3384-0.24785 1.4375 0.2148 2.0819 0.47918 0.62789 1.6193 0.62789z"/>
 </g>
</svg>
