<svg width="200" height="33" version="1.1" viewBox="0 0 52.917 8.7313" xmlns="http://www.w3.org/2000/svg">
 <g transform="matrix(.26486 0 0 .26486 -1.6041 -42.754)" fill="#519aba" stroke-width=".26458" aria-label="GAMILMS">
  <path d="m16.992 193.68q-4.1219 0-6.7204-1.4337-2.5986-1.4337-3.629-4.1219-0.98566-2.733-0.31362-6.4964 0.35842-1.9265 0.80645-4.1219 0.49283-2.2401 0.98566-4.2115 0.89606-3.7186 3.0466-6.362 2.1953-2.6434 5.4211-4.077 3.2258-1.4337 7.2581-1.4337 3.2706 0 5.5555 0.89605 2.2849 0.85125 3.629 2.2401 1.3441 1.3441 1.8369 2.9122 0.49283 1.5681 0.26882 2.9122-0.0448 0.40322-0.40323 0.67204-0.31362 0.26881-0.76165 0.26881h-4.6147q-0.40323 0-0.62724-0.17921-0.17921-0.17921-0.31362-0.53763-0.08961-0.94086-0.67204-1.8369-0.53763-0.94085-1.7473-1.5681-1.1649-0.62724-3.2258-0.62724-3.0466 0-5.2419 1.6129-2.1505 1.6129-3.0466 5.3315-0.49283 1.9265-0.94086 3.9426-0.40322 1.9713-0.76165 3.9426-0.62724 3.8082 0.85125 5.466 1.5233 1.6577 4.5699 1.6577 2.0161 0 3.7634-0.71685 1.7473-0.71684 2.957-2.2401 1.2545-1.5233 1.7473-3.8978l0.31362-1.3889h-5.5107q-0.44803 0-0.67204-0.31362t-0.13441-0.80645l0.49283-2.3745q0.08961-0.49284 0.44803-0.80645 0.40322-0.31362 0.85125-0.31362h10.708q0.49283 0 0.71684 0.31362 0.22401 0.31361 0.13441 0.80645l-0.98566 4.7043q-0.76165 3.7634-3.0018 6.4964-2.2401 2.733-5.6003 4.2115-3.3154 1.4785-7.4373 1.4785z"/>
  <path d="m33.233 193.23q-0.58244 0-0.76165-0.44803-0.22401-0.44802 0.0448-0.89605l16.935-28.898q0.26882-0.44802 0.67204-0.76164 0.44803-0.35843 1.1201-0.35843h5.1971q0.67204 0 0.98566 0.35843 0.31362 0.31362 0.35842 0.76164l4.6595 28.898q0.08961 0.62724-0.22401 0.98566-0.26882 0.35842-0.76165 0.35842h-3.8082q-0.62724 0-0.89606-0.26881-0.26882-0.31362-0.35842-0.76165l-0.98566-5.2867h-13.306l-3.2706 5.4659q-0.22401 0.31362-0.58244 0.58244-0.35842 0.26881-0.89606 0.26881zm11.514-11.47h10.215l-2.1505-13.844z"/>
  <path d="m67.429 193.23q-0.44803 0-0.71684-0.31362-0.26882-0.31362-0.17921-0.76164l6.2276-29.167q0.08961-0.49283 0.44803-0.80645 0.40322-0.31362 0.85125-0.31362h3.5842q0.62724 0 0.85125 0.35843 0.26882 0.31362 0.35842 0.49283l5.2419 16.129 12.142-16.129q0.08961-0.17921 0.44803-0.49283 0.40322-0.35843 1.0305-0.35843h3.5394q0.49283 0 0.71685 0.31362 0.26881 0.31362 0.17921 0.80645l-6.2276 29.167q-0.0896 0.44802-0.44803 0.76164-0.35842 0.31362-0.85125 0.31362h-3.8082q-0.44803 0-0.71684-0.31362-0.26882-0.31362-0.17921-0.76164l4.0323-18.996-8.5573 11.559q-0.31362 0.40323-0.71684 0.71685-0.40322 0.26881-0.98566 0.26881h-1.8369q-0.58244 0-0.89606-0.26881-0.26882-0.31362-0.40322-0.71685l-3.853-12.231-4.1667 19.668q-0.0896 0.44802-0.44803 0.76164-0.35842 0.31362-0.85125 0.31362z"/>
  <path d="m103.79 193.23q-0.44803 0-0.71684-0.31362-0.22402-0.31362-0.13441-0.76164l6.2276-29.211q0.0896-0.44803 0.44802-0.76165 0.35843-0.31362 0.85126-0.31362h4.2115q0.44803 0 0.71685 0.31362 0.26881 0.31362 0.17921 0.76165l-6.2724 29.211q-0.0896 0.44802-0.44802 0.76164-0.35843 0.31362-0.80645 0.31362z"/>
  <path d="m117.22 193.23q-0.49283 0-0.76165-0.31362-0.22401-0.31362-0.13441-0.76164l6.2276-29.211q0.0896-0.44803 0.44803-0.76165 0.35842-0.31362 0.85125-0.31362h4.1219q0.49283 0 0.71685 0.31362 0.26881 0.31362 0.17921 0.76165l-5.3315 24.955h14.202q0.49283 0 0.71685 0.31362 0.26881 0.31362 0.17921 0.80645l-0.67204 3.1362q-0.0896 0.44802-0.44803 0.76164-0.35842 0.31362-0.85126 0.31362z"/>
  <path d="m142.95 193.23q-0.44803 0-0.71685-0.31362-0.26881-0.31362-0.17921-0.76164l6.2276-29.167q0.0896-0.49283 0.44803-0.80645 0.40322-0.31362 0.85125-0.31362h3.5842q0.62724 0 0.85125 0.35843 0.26882 0.31362 0.35842 0.49283l5.2419 16.129 12.142-16.129q0.0896-0.17921 0.44803-0.49283 0.40322-0.35843 1.0305-0.35843h3.5394q0.49283 0 0.71685 0.31362 0.26881 0.31362 0.17921 0.80645l-6.2276 29.167q-0.0896 0.44802-0.44803 0.76164-0.35842 0.31362-0.85125 0.31362h-3.8082q-0.44803 0-0.71685-0.31362-0.26881-0.31362-0.17921-0.76164l4.0322-18.996-8.5573 11.559q-0.31362 0.40323-0.71684 0.71685-0.40323 0.26881-0.98567 0.26881h-1.8369q-0.58244 0-0.89606-0.26881-0.26881-0.31362-0.40322-0.71685l-3.853-12.231-4.1667 19.668q-0.0896 0.44802-0.44803 0.76164-0.35842 0.31362-0.85125 0.31362z"/>
  <path d="m189.52 193.68q-4.1667 0-6.81-1.2097-2.6434-1.2097-3.853-3.181-1.1649-2.0161-0.80645-4.2563 0.0448-0.40322 0.31362-0.67204 0.31362-0.26882 0.71684-0.26882h4.1219q0.53763 0 0.76165 0.26882 0.26882 0.22401 0.40322 0.58244 0.13441 0.85125 0.71685 1.7025 0.58244 0.80645 1.7473 1.3441 1.2097 0.53763 3.0914 0.53763 3.2258 0 5.1075-1.0753t2.2849-2.9122q0.26882-1.2993-0.40322-2.0609-0.67204-0.80645-2.3298-1.4337-1.6577-0.67204-4.3907-1.3889-3.1362-0.80645-5.1523-2.0609-2.0161-1.2545-2.7778-3.1362-0.71684-1.8817-0.13441-4.5251 0.80645-3.8978 4.1219-6.1828 3.3602-2.3297 8.7814-2.3297 2.8226 0 4.9283 0.80645 2.1057 0.76164 3.4946 2.0609 1.3889 1.2545 1.9713 2.733 0.58244 1.4337 0.35842 2.8226-0.0448 0.35842-0.31362 0.67204-0.26881 0.26882-0.71684 0.26882h-4.2563q-0.40322 0-0.71684-0.17921t-0.44803-0.67204q0.0448-1.3889-1.2545-2.3746-1.2545-0.98566-3.405-0.98566-2.4194 0-4.1667 0.89605-1.7025 0.89606-2.1505 2.7778-0.22401 1.2545 0.31362 2.1057 0.53764 0.80645 2.0161 1.4337t4.077 1.3441q3.6738 0.85126 5.7796 2.1057 2.1505 1.2097 2.9122 3.0466 0.76164 1.8369 0.17921 4.4803-0.89606 4.3907-4.5251 6.6756-3.629 2.2401-9.5878 2.2401z"/>
 </g>
</svg>
